# xmcd CD database file
#
# Track frame offsets:
#	150
#	23155
#	47962
#	74165
#	115462
#	133300
#	158090
#	180957
#	212705
#	242337
#	274807
#
# Disc length: 3975 seconds
#
# Revision: 0
# Processed by: cddbd v1.5.2PL0 Copyright (c) Steve Scherf et al.
# Submitted via: CDex 1.51
#
DISCID=a20f850b
DTITLE=H. P. Salentin - It's up to You
DYEAR=1900
DGENRE=Jazz
TTITLE0=Cologne Summer
TTITLE1=It's Up To You
TTITLE2=Skip
TTITLE3=Old Chicken
TTITLE4=One For Greg
TTITLE5=Open Lines
TTITLE6=It's Up To You (Jazz Cut)
TTITLE7=Crazeology
TTITLE8=Beatrice
TTITLE9=Eisenhower
TTITLE10=All The Things You Are
EXTD=
EXTT0=
EXTT1=
EXTT2=
EXTT3=
EXTT4=
EXTT5=
EXTT6=
EXTT7=
EXTT8=
EXTT9=
EXTT10=
PLAYORDER=
